<?xml version="1.0" standalone="no"?>
<!DOCTYPE svg PUBLIC "-//W3C//DTD SVG 20010904//EN"
 "http://www.w3.org/TR/2001/REC-SVG-20010904/DTD/svg10.dtd">
<svg version="1.0" xmlns="http://www.w3.org/2000/svg"
 width="266.000000pt" height="266.000000pt" viewBox="0 0 266.000000 266.000000"
 preserveAspectRatio="xMidYMid meet">
<metadata>
Created by potrace 1.11, written by Peter Selinger 2001-2013
</metadata>
<g transform="translate(0.000000,266.000000) scale(0.100000,-0.100000)"
fill="#000000" stroke="none">
<path d="M1267 2544 c-51 -34 -101 -90 -170 -193 -76 -113 -139 -229 -175
-321 -19 -51 -84 -158 -201 -334 -95 -142 -175 -264 -177 -271 -7 -17 -11
-805 -4 -805 3 0 82 78 177 172 l173 173 0 -91 0 -92 42 -38 c23 -21 43 -43
44 -48 0 -6 4 -36 7 -66 14 -117 80 -252 189 -387 55 -68 144 -153 160 -153
14 0 153 144 197 203 86 117 140 251 154 382 2 19 18 45 45 71 45 44 45 47 42
164 l-1 55 173 -173 c95 -94 175 -172 178 -172 3 0 4 180 3 400 l-1 401 -186
280 c-102 153 -186 284 -186 290 0 28 -86 204 -147 300 -62 97 -131 188 -167
219 -79 68 -108 74 -169 34z"/>
</g>
</svg>
