<?xml version="1.0" standalone="no"?>
<!DOCTYPE svg PUBLIC "-//W3C//DTD SVG 20010904//EN"
 "http://www.w3.org/TR/2001/REC-SVG-20010904/DTD/svg10.dtd">
<svg version="1.0" xmlns="http://www.w3.org/2000/svg"
 width="260.000000pt" height="260.000000pt" viewBox="0 0 260.000000 260.000000"
 preserveAspectRatio="xMidYMid meet">
<metadata>
Created by potrace 1.11, written by Peter Selinger 2001-2013
</metadata>
<g transform="translate(0.000000,260.000000) scale(0.100000,-0.100000)"
fill="#000000" stroke="none">
<path d="M0 1300 l0 -1300 1300 0 1300 0 0 1300 0 1300 -1300 0 -1300 0 0
-1300z m1348 988 c16 -2 96 -82 98 -97 1 -6 2 -16 3 -22 0 -5 7 -7 14 -3 6 4
9 4 5 -1 -4 -4 1 -20 12 -35 11 -16 20 -33 20 -39 0 -15 -73 -51 -123 -61 -36
-7 -38 -8 -12 -9 17 0 58 12 91 28 l62 29 41 -73 c47 -82 90 -194 92 -240 1
-28 2 -28 8 -6 5 20 25 -5 144 -183 l137 -206 0 -317 0 -318 -139 139 -139
139 -1 100 c-1 55 -3 103 -6 105 -3 3 -5 -30 -5 -73 0 -73 -2 -80 -29 -106
-138 -131 -486 -133 -640 -4 -30 26 -31 29 -31 113 0 47 -2 83 -5 80 -3 -2 -5
-52 -6 -110 l-1 -105 -139 -139 -139 -139 0 318 0 317 137 206 c119 178 139
203 144 183 6 -22 7 -22 8 6 2 46 45 158 92 240 l41 73 62 -29 c33 -16 75 -28
91 -28 26 1 24 2 -12 9 -50 10 -123 46 -123 61 0 6 9 23 20 39 11 15 16 31 12
35 -4 5 -1 5 6 1 6 -4 13 -2 13 3 1 6 2 14 3 19 2 13 56 78 56 68 0 -6 -12
-23 -27 -38 -15 -15 -25 -28 -22 -28 3 0 25 21 49 47 25 26 36 40 25 32 -18
-13 -19 -13 -6 3 7 10 16 16 20 14 4 -3 13 0 21 5 8 5 26 7 40 4 14 -3 31 -6
38 -7z m-303 -1307 c66 -33 153 -51 255 -51 141 0 256 35 323 98 l27 26 0
-100 c0 -100 0 -100 -32 -131 -79 -77 -248 -116 -405 -94 -100 14 -183 48
-230 94 -33 31 -33 31 -33 131 l0 100 28 -26 c15 -15 45 -35 67 -47z m107
-254 c51 -11 52 -12 20 -17 l-33 -5 51 -100 c28 -55 64 -116 80 -135 l30 -35
30 35 c17 19 53 80 80 135 l50 100 -32 5 c-32 5 -31 6 20 17 29 7 71 22 94 33
l41 19 -7 -56 c-14 -117 -95 -260 -215 -378 l-61 -59 -61 59 c-120 118 -201
261 -215 378 l-7 56 41 -19 c23 -11 65 -26 94 -33z"/>
<path d="M1390 2238 c41 -45 50 -53 50 -45 0 2 -21 23 -47 47 l-48 45 45 -47z"/>
<path d="M1283 2013 c9 -2 25 -2 35 0 9 3 1 5 -18 5 -19 0 -27 -2 -17 -5z"/>
<path d="M1225 1751 c-64 -29 -106 -88 -104 -144 0 -12 6 -1 13 26 16 57 38
84 91 108 104 48 216 -6 245 -117 l10 -39 -5 38 c-8 76 -93 147 -175 147 -19
0 -53 -9 -75 -19z"/>
<path d="M1124 1546 c6 -47 25 -76 73 -113 31 -24 45 -28 103 -28 58 0 72 4
103 28 48 37 67 66 73 113 4 37 4 36 -9 -9 -16 -55 -38 -82 -89 -108 -67 -34
-161 -17 -212 40 -11 12 -25 42 -33 68 -13 45 -13 46 -9 9z"/>
</g>
</svg>
